<?xml version="1.0" encoding="UTF-8" standalone="no"?>
<!DOCTYPE svg PUBLIC "-//W3C//DTD SVG 1.1//EN" "http://www.w3.org/Graphics/SVG/1.1/DTD/svg11.dtd">
<!-- Generated by Microsoft Visio, SVG Export XnorTT.svg Page-1 -->
<svg xmlns="http://www.w3.org/2000/svg" xmlns:xlink="http://www.w3.org/1999/xlink" xmlns:ev="http://www.w3.org/2001/xml-events"
		xmlns:v="http://schemas.microsoft.com/visio/2003/SVGExtensions/" width="1.83625in" height="1.71334in"
		viewBox="0 0 132.21 123.36" xml:space="preserve" color-interpolation-filters="sRGB" class="st4">
	<v:documentProperties v:langID="1033" v:viewMarkup="false"/>

	<style type="text/css">
	<![CDATA[
		.st1 {fill:none;stroke:none;stroke-linecap:round;stroke-linejoin:round;stroke-width:0.72}
		.st2 {fill:#000000;font-family:Arial;font-size:0.833336em}
		.st3 {stroke:#000000;stroke-linecap:round;stroke-linejoin:round;stroke-width:0.72}
		.st4 {fill:none;fill-rule:evenodd;font-size:12px;overflow:visible;stroke-linecap:square;stroke-miterlimit:3}
	]]>
	</style>

	<g v:mID="0" v:index="1" v:groupContext="foregroundPage">
		<title>Page-1</title>
		<v:pageProperties v:drawingScale="1" v:pageScale="1" v:drawingUnits="19" v:shadowOffsetX="9" v:shadowOffsetY="-9"/>
		<g id="shape1-1" v:mID="1" v:groupContext="shape" transform="translate(0.36,-95.8652)">
			<title>Sheet.1</title>
			<desc>0</desc>
			<v:textBlock v:margins="rect(4,4,4,4)"/>
			<v:textRect cx="6.75" cy="118.86" width="13.5" height="9"/>
			<rect x="0" y="114.36" width="13.5" height="9" class="st1"/>
			<text x="4" y="121.86" class="st2" v:langID="1033"><v:paragraph v:horizAlign="1"/><v:tabList/>0</text>		</g>
		<g id="shape2-4" v:mID="2" v:groupContext="shape" transform="translate(16.11,-95.8652)">
			<title>Sheet.2</title>
			<desc>0</desc>
			<v:textBlock v:margins="rect(4,4,4,4)"/>
			<v:textRect cx="6.75" cy="118.86" width="13.5" height="9"/>
			<rect x="0" y="114.36" width="13.5" height="9" class="st1"/>
			<text x="4" y="121.86" class="st2" v:langID="1033"><v:paragraph v:horizAlign="1"/><v:tabList/>0</text>		</g>
		<g id="shape3-7" v:mID="3" v:groupContext="shape" transform="translate(0.36,-82.3652)">
			<title>Sheet.3</title>
			<desc>0</desc>
			<v:textBlock v:margins="rect(4,4,4,4)"/>
			<v:textRect cx="6.75" cy="118.86" width="13.5" height="9"/>
			<rect x="0" y="114.36" width="13.5" height="9" class="st1"/>
			<text x="4" y="121.86" class="st2" v:langID="1033"><v:paragraph v:horizAlign="1"/><v:tabList/>0</text>		</g>
		<g id="shape4-10" v:mID="4" v:groupContext="shape" transform="translate(16.11,-82.3652)">
			<title>Sheet.4</title>
			<desc>1</desc>
			<v:textBlock v:margins="rect(4,4,4,4)"/>
			<v:textRect cx="6.75" cy="118.86" width="13.5" height="9"/>
			<rect x="0" y="114.36" width="13.5" height="9" class="st1"/>
			<text x="4" y="121.86" class="st2" v:langID="1033"><v:paragraph v:horizAlign="1"/><v:tabList/>1</text>		</g>
		<g id="shape5-13" v:mID="5" v:groupContext="shape" transform="translate(0.36,-68.8652)">
			<title>Sheet.5</title>
			<desc>1</desc>
			<v:textBlock v:margins="rect(4,4,4,4)"/>
			<v:textRect cx="6.75" cy="118.86" width="13.5" height="9"/>
			<rect x="0" y="114.36" width="13.5" height="9" class="st1"/>
			<text x="4" y="121.86" class="st2" v:langID="1033"><v:paragraph v:horizAlign="1"/><v:tabList/>1</text>		</g>
		<g id="shape6-16" v:mID="6" v:groupContext="shape" transform="translate(16.11,-68.8652)">
			<title>Sheet.6</title>
			<desc>0</desc>
			<v:textBlock v:margins="rect(4,4,4,4)"/>
			<v:textRect cx="6.75" cy="118.86" width="13.5" height="9"/>
			<rect x="0" y="114.36" width="13.5" height="9" class="st1"/>
			<text x="4" y="121.86" class="st2" v:langID="1033"><v:paragraph v:horizAlign="1"/><v:tabList/>0</text>		</g>
		<g id="shape7-19" v:mID="7" v:groupContext="shape" transform="translate(0.36,-55.3652)">
			<title>Sheet.7</title>
			<desc>1</desc>
			<v:textBlock v:margins="rect(4,4,4,4)"/>
			<v:textRect cx="6.75" cy="118.86" width="13.5" height="9"/>
			<rect x="0" y="114.36" width="13.5" height="9" class="st1"/>
			<text x="4" y="121.86" class="st2" v:langID="1033"><v:paragraph v:horizAlign="1"/><v:tabList/>1</text>		</g>
		<g id="shape8-22" v:mID="8" v:groupContext="shape" transform="translate(16.11,-55.3652)">
			<title>Sheet.8</title>
			<desc>1</desc>
			<v:textBlock v:margins="rect(4,4,4,4)"/>
			<v:textRect cx="6.75" cy="118.86" width="13.5" height="9"/>
			<rect x="0" y="114.36" width="13.5" height="9" class="st1"/>
			<text x="4" y="121.86" class="st2" v:langID="1033"><v:paragraph v:horizAlign="1"/><v:tabList/>1</text>		</g>
		<g id="shape9-25" v:mID="9" v:groupContext="shape" transform="translate(0.36,-111.615)">
			<title>Sheet.9</title>
			<desc>A</desc>
			<v:textBlock v:margins="rect(4,4,4,4)"/>
			<v:textRect cx="6.75" cy="118.86" width="13.5" height="9"/>
			<rect x="0" y="114.36" width="13.5" height="9" class="st1"/>
			<text x="4" y="121.86" class="st2" v:langID="1033"><v:paragraph v:horizAlign="1"/><v:tabList/>A</text>		</g>
		<g id="shape10-28" v:mID="10" v:groupContext="shape" transform="translate(16.11,-111.615)">
			<title>Sheet.10</title>
			<desc>B</desc>
			<v:textBlock v:margins="rect(4,4,4,4)"/>
			<v:textRect cx="6.75" cy="118.86" width="13.5" height="9"/>
			<rect x="0" y="114.36" width="13.5" height="9" class="st1"/>
			<text x="4" y="121.86" class="st2" v:langID="1033"><v:paragraph v:horizAlign="1"/><v:tabList/>B</text>		</g>
		<g id="shape11-31" v:mID="11" v:groupContext="shape" transform="translate(34.11,-111.615)">
			<title>Sheet.11</title>
			<desc>F</desc>
			<v:textBlock v:margins="rect(4,4,4,4)"/>
			<v:textRect cx="6.75" cy="118.86" width="13.5" height="9"/>
			<rect x="0" y="114.36" width="13.5" height="9" class="st1"/>
			<text x="4" y="121.86" class="st2" v:langID="1033"><v:paragraph v:horizAlign="1"/><v:tabList/>F</text>		</g>
		<g id="shape12-34" v:mID="12" v:groupContext="shape" transform="translate(3.225,-109.365)">
			<title>Sheet.12</title>
			<path d="M0 123.36 L42.14 123.36" class="st3"/>
		</g>
		<g id="shape13-37" v:mID="13" v:groupContext="shape" transform="translate(155.22,0.495) rotate(90)">
			<title>Sheet.13</title>
			<path d="M0 123.36 L68.49 123.36" class="st3"/>
		</g>
		<g id="shape14-40" v:mID="14" v:groupContext="shape" transform="translate(34.11,-95.8652)">
			<title>Sheet.14</title>
			<desc>1</desc>
			<v:textBlock v:margins="rect(4,4,4,4)"/>
			<v:textRect cx="6.75" cy="118.86" width="13.5" height="9"/>
			<rect x="0" y="114.36" width="13.5" height="9" class="st1"/>
			<text x="4" y="121.86" class="st2" v:langID="1033"><v:paragraph v:horizAlign="1"/><v:tabList/>1</text>		</g>
		<g id="shape15-43" v:mID="15" v:groupContext="shape" transform="translate(34.11,-82.3652)">
			<title>Sheet.15</title>
			<desc>0</desc>
			<v:textBlock v:margins="rect(4,4,4,4)"/>
			<v:textRect cx="6.75" cy="118.86" width="13.5" height="9"/>
			<rect x="0" y="114.36" width="13.5" height="9" class="st1"/>
			<text x="4" y="121.86" class="st2" v:langID="1033"><v:paragraph v:horizAlign="1"/><v:tabList/>0</text>		</g>
		<g id="shape16-46" v:mID="16" v:groupContext="shape" transform="translate(34.11,-68.8652)">
			<title>Sheet.16</title>
			<desc>0</desc>
			<v:textBlock v:margins="rect(4,4,4,4)"/>
			<v:textRect cx="6.75" cy="118.86" width="13.5" height="9"/>
			<rect x="0" y="114.36" width="13.5" height="9" class="st1"/>
			<text x="4" y="121.86" class="st2" v:langID="1033"><v:paragraph v:horizAlign="1"/><v:tabList/>0</text>		</g>
		<g id="shape17-49" v:mID="17" v:groupContext="shape" transform="translate(34.11,-55.3652)">
			<title>Sheet.17</title>
			<desc>1</desc>
			<v:textBlock v:margins="rect(4,4,4,4)"/>
			<v:textRect cx="6.75" cy="118.86" width="13.5" height="9"/>
			<rect x="0" y="114.36" width="13.5" height="9" class="st1"/>
			<text x="4" y="121.86" class="st2" v:langID="1033"><v:paragraph v:horizAlign="1"/><v:tabList/>1</text>		</g>
		<g id="shape18-52" v:mID="18" v:groupContext="shape" transform="translate(64.35,-96.0002)">
			<title>Sheet.18</title>
			<desc>0</desc>
			<v:textBlock v:margins="rect(4,4,4,4)"/>
			<v:textRect cx="6.75" cy="118.86" width="13.5" height="9"/>
			<rect x="0" y="114.36" width="13.5" height="9" class="st1"/>
			<text x="4" y="121.86" class="st2" v:langID="1033"><v:paragraph v:horizAlign="1"/><v:tabList/>0</text>		</g>
		<g id="shape19-55" v:mID="19" v:groupContext="shape" transform="translate(80.1,-96.0002)">
			<title>Sheet.19</title>
			<desc>0</desc>
			<v:textBlock v:margins="rect(4,4,4,4)"/>
			<v:textRect cx="6.75" cy="118.86" width="13.5" height="9"/>
			<rect x="0" y="114.36" width="13.5" height="9" class="st1"/>
			<text x="4" y="121.86" class="st2" v:langID="1033"><v:paragraph v:horizAlign="1"/><v:tabList/>0</text>		</g>
		<g id="shape20-58" v:mID="20" v:groupContext="shape" transform="translate(95.85,-96.0002)">
			<title>Sheet.20</title>
			<desc>0</desc>
			<v:textBlock v:margins="rect(4,4,4,4)"/>
			<v:textRect cx="6.75" cy="118.86" width="13.5" height="9"/>
			<rect x="0" y="114.36" width="13.5" height="9" class="st1"/>
			<text x="4" y="121.86" class="st2" v:langID="1033"><v:paragraph v:horizAlign="1"/><v:tabList/>0</text>		</g>
		<g id="shape21-61" v:mID="21" v:groupContext="shape" transform="translate(64.35,-82.5002)">
			<title>Sheet.21</title>
			<desc>0</desc>
			<v:textBlock v:margins="rect(4,4,4,4)"/>
			<v:textRect cx="6.75" cy="118.86" width="13.5" height="9"/>
			<rect x="0" y="114.36" width="13.5" height="9" class="st1"/>
			<text x="4" y="121.86" class="st2" v:langID="1033"><v:paragraph v:horizAlign="1"/><v:tabList/>0</text>		</g>
		<g id="shape22-64" v:mID="22" v:groupContext="shape" transform="translate(80.1,-82.5002)">
			<title>Sheet.22</title>
			<desc>0</desc>
			<v:textBlock v:margins="rect(4,4,4,4)"/>
			<v:textRect cx="6.75" cy="118.86" width="13.5" height="9"/>
			<rect x="0" y="114.36" width="13.5" height="9" class="st1"/>
			<text x="4" y="121.86" class="st2" v:langID="1033"><v:paragraph v:horizAlign="1"/><v:tabList/>0</text>		</g>
		<g id="shape23-67" v:mID="23" v:groupContext="shape" transform="translate(95.85,-82.5002)">
			<title>Sheet.23</title>
			<desc>1</desc>
			<v:textBlock v:margins="rect(4,4,4,4)"/>
			<v:textRect cx="6.75" cy="118.86" width="13.5" height="9"/>
			<rect x="0" y="114.36" width="13.5" height="9" class="st1"/>
			<text x="4" y="121.86" class="st2" v:langID="1033"><v:paragraph v:horizAlign="1"/><v:tabList/>1</text>		</g>
		<g id="shape24-70" v:mID="24" v:groupContext="shape" transform="translate(64.35,-69.0002)">
			<title>Sheet.24</title>
			<desc>0</desc>
			<v:textBlock v:margins="rect(4,4,4,4)"/>
			<v:textRect cx="6.75" cy="118.86" width="13.5" height="9"/>
			<rect x="0" y="114.36" width="13.5" height="9" class="st1"/>
			<text x="4" y="121.86" class="st2" v:langID="1033"><v:paragraph v:horizAlign="1"/><v:tabList/>0</text>		</g>
		<g id="shape25-73" v:mID="25" v:groupContext="shape" transform="translate(80.1,-69.0002)">
			<title>Sheet.25</title>
			<desc>1</desc>
			<v:textBlock v:margins="rect(4,4,4,4)"/>
			<v:textRect cx="6.75" cy="118.86" width="13.5" height="9"/>
			<rect x="0" y="114.36" width="13.5" height="9" class="st1"/>
			<text x="4" y="121.86" class="st2" v:langID="1033"><v:paragraph v:horizAlign="1"/><v:tabList/>1</text>		</g>
		<g id="shape26-76" v:mID="26" v:groupContext="shape" transform="translate(95.85,-69.0002)">
			<title>Sheet.26</title>
			<desc>0</desc>
			<v:textBlock v:margins="rect(4,4,4,4)"/>
			<v:textRect cx="6.75" cy="118.86" width="13.5" height="9"/>
			<rect x="0" y="114.36" width="13.5" height="9" class="st1"/>
			<text x="4" y="121.86" class="st2" v:langID="1033"><v:paragraph v:horizAlign="1"/><v:tabList/>0</text>		</g>
		<g id="shape27-79" v:mID="27" v:groupContext="shape" transform="translate(64.35,-55.5002)">
			<title>Sheet.27</title>
			<desc>0</desc>
			<v:textBlock v:margins="rect(4,4,4,4)"/>
			<v:textRect cx="6.75" cy="118.86" width="13.5" height="9"/>
			<rect x="0" y="114.36" width="13.5" height="9" class="st1"/>
			<text x="4" y="121.86" class="st2" v:langID="1033"><v:paragraph v:horizAlign="1"/><v:tabList/>0</text>		</g>
		<g id="shape28-82" v:mID="28" v:groupContext="shape" transform="translate(80.1,-55.5002)">
			<title>Sheet.28</title>
			<desc>1</desc>
			<v:textBlock v:margins="rect(4,4,4,4)"/>
			<v:textRect cx="6.75" cy="118.86" width="13.5" height="9"/>
			<rect x="0" y="114.36" width="13.5" height="9" class="st1"/>
			<text x="4" y="121.86" class="st2" v:langID="1033"><v:paragraph v:horizAlign="1"/><v:tabList/>1</text>		</g>
		<g id="shape29-85" v:mID="29" v:groupContext="shape" transform="translate(95.85,-55.5002)">
			<title>Sheet.29</title>
			<desc>1</desc>
			<v:textBlock v:margins="rect(4,4,4,4)"/>
			<v:textRect cx="6.75" cy="118.86" width="13.5" height="9"/>
			<rect x="0" y="114.36" width="13.5" height="9" class="st1"/>
			<text x="4" y="121.86" class="st2" v:langID="1033"><v:paragraph v:horizAlign="1"/><v:tabList/>1</text>		</g>
		<g id="shape30-88" v:mID="30" v:groupContext="shape" transform="translate(64.35,-42.0002)">
			<title>Sheet.30</title>
			<desc>1</desc>
			<v:textBlock v:margins="rect(4,4,4,4)"/>
			<v:textRect cx="6.75" cy="118.86" width="13.5" height="9"/>
			<rect x="0" y="114.36" width="13.5" height="9" class="st1"/>
			<text x="4" y="121.86" class="st2" v:langID="1033"><v:paragraph v:horizAlign="1"/><v:tabList/>1</text>		</g>
		<g id="shape31-91" v:mID="31" v:groupContext="shape" transform="translate(80.1,-42.0002)">
			<title>Sheet.31</title>
			<desc>0</desc>
			<v:textBlock v:margins="rect(4,4,4,4)"/>
			<v:textRect cx="6.75" cy="118.86" width="13.5" height="9"/>
			<rect x="0" y="114.36" width="13.5" height="9" class="st1"/>
			<text x="4" y="121.86" class="st2" v:langID="1033"><v:paragraph v:horizAlign="1"/><v:tabList/>0</text>		</g>
		<g id="shape32-94" v:mID="32" v:groupContext="shape" transform="translate(95.85,-42.0002)">
			<title>Sheet.32</title>
			<desc>0</desc>
			<v:textBlock v:margins="rect(4,4,4,4)"/>
			<v:textRect cx="6.75" cy="118.86" width="13.5" height="9"/>
			<rect x="0" y="114.36" width="13.5" height="9" class="st1"/>
			<text x="4" y="121.86" class="st2" v:langID="1033"><v:paragraph v:horizAlign="1"/><v:tabList/>0</text>		</g>
		<g id="shape33-97" v:mID="33" v:groupContext="shape" transform="translate(64.35,-28.5002)">
			<title>Sheet.33</title>
			<desc>1</desc>
			<v:textBlock v:margins="rect(4,4,4,4)"/>
			<v:textRect cx="6.75" cy="118.86" width="13.5" height="9"/>
			<rect x="0" y="114.36" width="13.5" height="9" class="st1"/>
			<text x="4" y="121.86" class="st2" v:langID="1033"><v:paragraph v:horizAlign="1"/><v:tabList/>1</text>		</g>
		<g id="shape34-100" v:mID="34" v:groupContext="shape" transform="translate(80.1,-28.5002)">
			<title>Sheet.34</title>
			<desc>0</desc>
			<v:textBlock v:margins="rect(4,4,4,4)"/>
			<v:textRect cx="6.75" cy="118.86" width="13.5" height="9"/>
			<rect x="0" y="114.36" width="13.5" height="9" class="st1"/>
			<text x="4" y="121.86" class="st2" v:langID="1033"><v:paragraph v:horizAlign="1"/><v:tabList/>0</text>		</g>
		<g id="shape35-103" v:mID="35" v:groupContext="shape" transform="translate(95.85,-28.5002)">
			<title>Sheet.35</title>
			<desc>1</desc>
			<v:textBlock v:margins="rect(4,4,4,4)"/>
			<v:textRect cx="6.75" cy="118.86" width="13.5" height="9"/>
			<rect x="0" y="114.36" width="13.5" height="9" class="st1"/>
			<text x="4" y="121.86" class="st2" v:langID="1033"><v:paragraph v:horizAlign="1"/><v:tabList/>1</text>		</g>
		<g id="shape36-106" v:mID="36" v:groupContext="shape" transform="translate(64.35,-15.0002)">
			<title>Sheet.36</title>
			<desc>1</desc>
			<v:textBlock v:margins="rect(4,4,4,4)"/>
			<v:textRect cx="6.75" cy="118.86" width="13.5" height="9"/>
			<rect x="0" y="114.36" width="13.5" height="9" class="st1"/>
			<text x="4" y="121.86" class="st2" v:langID="1033"><v:paragraph v:horizAlign="1"/><v:tabList/>1</text>		</g>
		<g id="shape37-109" v:mID="37" v:groupContext="shape" transform="translate(80.1,-15.0002)">
			<title>Sheet.37</title>
			<desc>1</desc>
			<v:textBlock v:margins="rect(4,4,4,4)"/>
			<v:textRect cx="6.75" cy="118.86" width="13.5" height="9"/>
			<rect x="0" y="114.36" width="13.5" height="9" class="st1"/>
			<text x="4" y="121.86" class="st2" v:langID="1033"><v:paragraph v:horizAlign="1"/><v:tabList/>1</text>		</g>
		<g id="shape38-112" v:mID="38" v:groupContext="shape" transform="translate(95.85,-15.0002)">
			<title>Sheet.38</title>
			<desc>0</desc>
			<v:textBlock v:margins="rect(4,4,4,4)"/>
			<v:textRect cx="6.75" cy="118.86" width="13.5" height="9"/>
			<rect x="0" y="114.36" width="13.5" height="9" class="st1"/>
			<text x="4" y="121.86" class="st2" v:langID="1033"><v:paragraph v:horizAlign="1"/><v:tabList/>0</text>		</g>
		<g id="shape39-115" v:mID="39" v:groupContext="shape" transform="translate(64.35,-1.50018)">
			<title>Sheet.39</title>
			<desc>1</desc>
			<v:textBlock v:margins="rect(4,4,4,4)"/>
			<v:textRect cx="6.75" cy="118.86" width="13.5" height="9"/>
			<rect x="0" y="114.36" width="13.5" height="9" class="st1"/>
			<text x="4" y="121.86" class="st2" v:langID="1033"><v:paragraph v:horizAlign="1"/><v:tabList/>1</text>		</g>
		<g id="shape40-118" v:mID="40" v:groupContext="shape" transform="translate(80.1,-1.50018)">
			<title>Sheet.40</title>
			<desc>1</desc>
			<v:textBlock v:margins="rect(4,4,4,4)"/>
			<v:textRect cx="6.75" cy="118.86" width="13.5" height="9"/>
			<rect x="0" y="114.36" width="13.5" height="9" class="st1"/>
			<text x="4" y="121.86" class="st2" v:langID="1033"><v:paragraph v:horizAlign="1"/><v:tabList/>1</text>		</g>
		<g id="shape41-121" v:mID="41" v:groupContext="shape" transform="translate(95.85,-1.50018)">
			<title>Sheet.41</title>
			<desc>1</desc>
			<v:textBlock v:margins="rect(4,4,4,4)"/>
			<v:textRect cx="6.75" cy="118.86" width="13.5" height="9"/>
			<rect x="0" y="114.36" width="13.5" height="9" class="st1"/>
			<text x="4" y="121.86" class="st2" v:langID="1033"><v:paragraph v:horizAlign="1"/><v:tabList/>1</text>		</g>
		<g id="shape42-124" v:mID="42" v:groupContext="shape" transform="translate(64.35,-111.75)">
			<title>Sheet.42</title>
			<desc>A</desc>
			<v:textBlock v:margins="rect(4,4,4,4)"/>
			<v:textRect cx="6.75" cy="118.86" width="13.5" height="9"/>
			<rect x="0" y="114.36" width="13.5" height="9" class="st1"/>
			<text x="4" y="121.86" class="st2" v:langID="1033"><v:paragraph v:horizAlign="1"/><v:tabList/>A</text>		</g>
		<g id="shape43-127" v:mID="43" v:groupContext="shape" transform="translate(80.1,-111.75)">
			<title>Sheet.43</title>
			<desc>B</desc>
			<v:textBlock v:margins="rect(4,4,4,4)"/>
			<v:textRect cx="6.75" cy="118.86" width="13.5" height="9"/>
			<rect x="0" y="114.36" width="13.5" height="9" class="st1"/>
			<text x="4" y="121.86" class="st2" v:langID="1033"><v:paragraph v:horizAlign="1"/><v:tabList/>B</text>		</g>
		<g id="shape44-130" v:mID="44" v:groupContext="shape" transform="translate(95.85,-111.75)">
			<title>Sheet.44</title>
			<desc>C</desc>
			<v:textBlock v:margins="rect(4,4,4,4)"/>
			<v:textRect cx="6.75" cy="118.86" width="13.5" height="9"/>
			<rect x="0" y="114.36" width="13.5" height="9" class="st1"/>
			<text x="4" y="121.86" class="st2" v:langID="1033"><v:paragraph v:horizAlign="1"/><v:tabList/>C</text>		</g>
		<g id="shape45-133" v:mID="45" v:groupContext="shape" transform="translate(113.85,-111.75)">
			<title>Sheet.45</title>
			<desc>F’</desc>
			<v:textBlock v:margins="rect(4,4,4,4)"/>
			<v:textRect cx="9" cy="118.86" width="18" height="9"/>
			<rect x="0" y="114.36" width="18" height="9" class="st1"/>
			<text x="4.84" y="121.86" class="st2" v:langID="1033"><v:paragraph v:horizAlign="1"/><v:tabList/>F’</text>		</g>
		<g id="shape46-136" v:mID="46" v:groupContext="shape" transform="translate(64.965,-109.5)">
			<title>Sheet.46</title>
			<path d="M0 123.36 L60.14 123.36" class="st3"/>
		</g>
		<g id="shape47-139" v:mID="47" v:groupContext="shape" transform="translate(234.96,0.36) rotate(90)">
			<title>Sheet.47</title>
			<path d="M0 123.36 L121.5 123.36" class="st3"/>
		</g>
		<g id="shape48-142" v:mID="48" v:groupContext="shape" transform="translate(113.85,-96.0002)">
			<title>Sheet.48</title>
			<desc>1</desc>
			<v:textBlock v:margins="rect(4,4,4,4)"/>
			<v:textRect cx="6.75" cy="118.86" width="13.5" height="9"/>
			<rect x="0" y="114.36" width="13.5" height="9" class="st1"/>
			<text x="4" y="121.86" class="st2" v:langID="1033"><v:paragraph v:horizAlign="1"/><v:tabList/>1</text>		</g>
		<g id="shape49-145" v:mID="49" v:groupContext="shape" transform="translate(113.85,-82.5002)">
			<title>Sheet.49</title>
			<desc>0</desc>
			<v:textBlock v:margins="rect(4,4,4,4)"/>
			<v:textRect cx="6.75" cy="118.86" width="13.5" height="9"/>
			<rect x="0" y="114.36" width="13.5" height="9" class="st1"/>
			<text x="4" y="121.86" class="st2" v:langID="1033"><v:paragraph v:horizAlign="1"/><v:tabList/>0</text>		</g>
		<g id="shape50-148" v:mID="50" v:groupContext="shape" transform="translate(113.85,-69.0002)">
			<title>Sheet.50</title>
			<desc>0</desc>
			<v:textBlock v:margins="rect(4,4,4,4)"/>
			<v:textRect cx="6.75" cy="118.86" width="13.5" height="9"/>
			<rect x="0" y="114.36" width="13.5" height="9" class="st1"/>
			<text x="4" y="121.86" class="st2" v:langID="1033"><v:paragraph v:horizAlign="1"/><v:tabList/>0</text>		</g>
		<g id="shape51-151" v:mID="51" v:groupContext="shape" transform="translate(113.85,-55.5002)">
			<title>Sheet.51</title>
			<desc>1</desc>
			<v:textBlock v:margins="rect(4,4,4,4)"/>
			<v:textRect cx="6.75" cy="118.86" width="13.5" height="9"/>
			<rect x="0" y="114.36" width="13.5" height="9" class="st1"/>
			<text x="4" y="121.86" class="st2" v:langID="1033"><v:paragraph v:horizAlign="1"/><v:tabList/>1</text>		</g>
		<g id="shape52-154" v:mID="52" v:groupContext="shape" transform="translate(113.85,-42.0002)">
			<title>Sheet.52</title>
			<desc>0</desc>
			<v:textBlock v:margins="rect(4,4,4,4)"/>
			<v:textRect cx="6.75" cy="118.86" width="13.5" height="9"/>
			<rect x="0" y="114.36" width="13.5" height="9" class="st1"/>
			<text x="4" y="121.86" class="st2" v:langID="1033"><v:paragraph v:horizAlign="1"/><v:tabList/>0</text>		</g>
		<g id="shape53-157" v:mID="53" v:groupContext="shape" transform="translate(113.85,-28.5002)">
			<title>Sheet.53</title>
			<desc>1</desc>
			<v:textBlock v:margins="rect(4,4,4,4)"/>
			<v:textRect cx="6.75" cy="118.86" width="13.5" height="9"/>
			<rect x="0" y="114.36" width="13.5" height="9" class="st1"/>
			<text x="4" y="121.86" class="st2" v:langID="1033"><v:paragraph v:horizAlign="1"/><v:tabList/>1</text>		</g>
		<g id="shape54-160" v:mID="54" v:groupContext="shape" transform="translate(113.85,-15.0002)">
			<title>Sheet.54</title>
			<desc>1</desc>
			<v:textBlock v:margins="rect(4,4,4,4)"/>
			<v:textRect cx="6.75" cy="118.86" width="13.5" height="9"/>
			<rect x="0" y="114.36" width="13.5" height="9" class="st1"/>
			<text x="4" y="121.86" class="st2" v:langID="1033"><v:paragraph v:horizAlign="1"/><v:tabList/>1</text>		</g>
		<g id="shape55-163" v:mID="55" v:groupContext="shape" transform="translate(113.85,-1.50018)">
			<title>Sheet.55</title>
			<desc>0</desc>
			<v:textBlock v:margins="rect(4,4,4,4)"/>
			<v:textRect cx="6.75" cy="118.86" width="13.5" height="9"/>
			<rect x="0" y="114.36" width="13.5" height="9" class="st1"/>
			<text x="4" y="121.86" class="st2" v:langID="1033"><v:paragraph v:horizAlign="1"/><v:tabList/>0</text>		</g>
	</g>
</svg>
